<?xml version="1.0" standalone="no"?>
<!DOCTYPE svg PUBLIC "-//W3C//DTD SVG 20010904//EN"
 "http://www.w3.org/TR/2001/REC-SVG-20010904/DTD/svg10.dtd">
<svg version="1.0" xmlns="http://www.w3.org/2000/svg"
 width="3269.491371pt" height="1657.873371pt" viewBox="0 0 3269.491371 1657.873371"
 preserveAspectRatio="xMidYMid meet">
<metadata>
Created by potrace 1.16, written by Peter Selinger 2001-2019
</metadata>
<g transform="translate(-187.640709,1713.982841) scale(1.000000,-1.000000)"
fill="#000000" stroke="none">
<path d="M1548 1713 c-2 0 -2 -2 -2 -27 l0 -26 18 0 c24 1 30 4 30 17 0 11 -5
15 -23 16 l-12 1 0 5 0 5 13 0 c7 0 13 0 14 0 2 2 1 8 -1 9 -2 1 -34 1 -37 0z
m32 -32 c6 -6 0 -11 -12 -11 l-9 1 -1 6 0 6 10 0 c8 0 10 -1 12 -2z"/>
<path d="M1754 1713 l-2 -1 0 -26 1 -25 5 0 6 0 0 17 0 17 6 -17 6 -17 4 0 4
0 6 17 6 17 0 -18 0 -17 6 0 5 0 0 26 0 27 -3 0 c-6 1 -11 1 -12 -1 -1 -1 -9
-23 -11 -30 0 -3 -2 -5 -2 -3 0 1 -1 5 -2 9 -2 4 -4 11 -5 16 -3 8 -4 9 -6 9
-4 1 -9 1 -12 0z"/>
<path d="M1964 1713 c-4 -1 -24 -34 -24 -38 l1 -3 11 -1 12 0 0 -5 1 -5 5 -1
5 0 0 3 c0 6 1 8 4 8 2 0 3 1 3 3 1 4 0 6 -3 6 l-3 1 -1 15 c0 9 0 16 0 17 -1
1 -9 1 -11 0z m0 -23 l0 -10 -6 0 c-7 0 -7 0 0 10 7 11 6 11 6 0z"/>
<path d="M2052 1713 c-2 -1 -2 -5 -2 -27 l1 -25 5 -1 c7 0 7 -1 7 22 0 11 0
20 0 21 0 1 3 1 13 1 l12 0 0 4 c0 4 0 5 -3 5 -4 2 -32 1 -33 0z"/>
<path d="M2174 1713 c-16 -1 -24 -11 -23 -28 1 -17 12 -26 29 -25 15 1 27 14
16 18 l-4 1 -4 -4 c-13 -14 -32 4 -23 22 4 7 18 8 24 1 2 -3 11 -2 11 1 0 9
-13 15 -26 14z"/>
<path d="M2204 1713 c-2 -1 -2 -8 -1 -9 1 0 5 0 9 0 5 0 7 0 7 -1 1 -3 1 -7 1
-25 l0 -18 6 0 6 1 0 21 1 22 7 0 8 0 0 4 c0 3 0 5 -1 5 -2 1 -41 1 -43 0z"/>
<path d="M2273 1713 c-1 0 -1 -2 -1 -5 0 -5 1 -5 14 -5 11 1 11 1 7 -6 -8 -12
-11 -20 -13 -29 -1 -8 -1 -8 6 -8 l5 1 1 6 c2 10 4 17 14 34 4 5 4 10 1 12 -2
1 -33 1 -34 0z"/>
<path d="M2317 1713 c-1 0 -2 0 -2 -1 -2 -8 0 -9 13 -9 12 1 12 1 8 -5 -8 -12
-15 -32 -14 -37 1 -1 2 -1 6 -1 6 0 6 0 7 8 2 9 4 15 16 35 2 5 1 10 -2 10 -4
1 -30 1 -32 0z"/>
<path d="M2415 1713 c-8 -1 -12 -4 -14 -10 -1 -4 2 -11 5 -12 3 -1 3 -3 0 -3
-7 -3 -8 -18 -1 -24 9 -7 28 -4 32 5 2 6 0 17 -3 17 -3 0 -4 3 -1 6 11 9 -1
23 -18 21z m9 -12 c2 -6 -4 -10 -9 -7 -2 2 -3 7 -1 9 3 2 9 1 10 -2z m0 -19
c5 -4 1 -13 -5 -13 -6 0 -10 8 -5 13 2 2 8 3 10 0z"/>
<path d="M2471 1713 c-2 0 -2 -1 -2 -4 0 -6 0 -6 13 -6 13 1 13 1 7 -8 -14
-22 -16 -35 -6 -35 l5 1 2 7 c1 9 4 16 10 27 7 11 8 17 3 18 -2 1 -29 1 -32 0z"/>
<path d="M1823 1712 c-9 -4 -11 -15 -4 -21 3 -3 3 -3 1 -3 -6 -2 -8 -13 -4
-20 8 -14 36 -8 36 8 0 4 -2 10 -4 10 -4 0 -4 3 -1 6 12 11 -7 27 -24 20z m15
-10 c1 -5 0 -7 -4 -8 -5 -2 -10 5 -6 9 3 2 9 1 10 -1z m0 -20 c5 -5 1 -13 -5
-13 -5 0 -7 2 -7 8 0 7 7 10 12 5z"/>
<path d="M1995 1712 c-14 -6 -13 -44 2 -51 19 -8 33 20 22 43 -3 7 -16 11 -24
8z m12 -9 c4 -3 5 -25 1 -31 -6 -10 -14 7 -11 25 2 6 6 9 10 6z"/>
<path d="M2107 1712 c-14 -6 -20 -24 -13 -38 10 -21 44 -18 50 4 6 23 -15 42
-37 34z m18 -10 c10 -4 10 -25 0 -30 -11 -6 -22 3 -21 16 1 13 9 18 21 14z"/>
<path d="M2365 1711 c-11 -8 -10 -25 1 -31 5 -2 10 -2 14 1 l3 2 0 -4 c-1 -8
-9 -12 -13 -6 -3 2 -11 2 -12 -1 -2 -11 21 -16 31 -7 9 10 8 39 -3 46 -5 3
-16 3 -21 0z m14 -8 c2 -1 4 -7 3 -10 -2 -5 -9 -7 -11 -3 -5 7 1 17 8 13z"/>
<path d="M2523 1712 c-15 -5 -15 -43 0 -50 15 -8 27 5 26 28 -1 18 -12 27 -26
22z m11 -10 c4 -5 4 -28 0 -31 -7 -5 -10 1 -10 17 1 15 5 21 10 14z"/>
<path d="M1880 1702 l-2 -3 6 -7 6 -6 -6 -6 c-7 -7 -7 -7 -3 -11 3 -3 2 -3 10
4 l6 6 6 -6 c7 -7 8 -7 11 -3 l2 3 -6 7 -6 6 6 6 c7 7 7 7 3 11 -3 3 -3 3 -9
-3 -3 -4 -6 -6 -7 -6 0 0 -3 2 -6 6 -6 6 -8 6 -11 2z"/>
<path d="M1654 1701 c0 -1 -1 -4 -1 -7 -2 -18 -5 -26 -8 -26 -2 0 -4 -4 -3 -6
1 -3 8 -2 12 0 4 2 6 6 8 20 2 13 2 12 7 12 l5 0 0 -17 0 -17 6 0 6 1 0 20 c0
15 0 20 -1 20 -4 2 -30 1 -31 0z"/>
<path d="M1608 1700 c-6 -3 -10 -11 -10 -19 0 -27 39 -29 42 -2 2 18 -15 29
-32 21z m17 -8 c2 -2 3 -11 2 -16 -3 -11 -15 -10 -16 2 -2 11 6 20 14 14z"/>
<path d="M1692 1698 l1 -3 5 -1 5 0 0 -17 1 -16 5 0 6 0 0 16 1 17 5 0 c5 0 5
0 5 4 1 4 2 4 -17 4 l-17 0 0 -4z"/>
<path d="M2443 1680 l0 -5 10 0 11 1 0 4 0 5 -11 0 -10 0 0 -5z"/>
<path d="M3246 1648 c-5 -4 -6 -5 -4 -9 2 -4 2 -11 -2 -16 -13 -19 -10 -40 4
-36 12 3 19 29 12 43 -2 6 -2 7 3 7 3 0 9 4 9 7 0 6 -16 8 -22 4z m4 -49 c-1
-1 -3 -1 -6 -1 -8 1 -8 4 2 18 l5 6 0 -10 c0 -8 0 -12 -1 -13z"/>
<path d="M3105 1648 c-4 -2 -7 -9 -11 -26 -1 -5 -3 -11 -3 -13 -5 -21 -3 -24
8 -10 6 8 9 10 15 12 4 1 9 5 9 10 1 4 -1 5 -4 2 -7 -6 -23 -3 -17 4 1 1 2 3
2 4 1 4 1 4 7 5 6 0 12 -2 13 -5 1 -3 5 0 5 5 0 9 -14 16 -24 12z"/>
<path d="M3144 1628 c-9 -4 -13 -12 -14 -28 0 -8 0 -9 2 -11 4 -4 13 -4 18 -1
6 4 3 9 -5 9 -6 0 -9 1 -9 3 0 2 6 6 9 6 7 0 18 7 16 11 -2 6 -9 14 -12 14 0
0 -3 -1 -5 -3z m6 -11 c0 -3 -4 -5 -7 -2 -3 2 -2 3 3 3 2 0 4 0 4 -1z"/>
<path d="M3176 1627 c-4 -4 -4 -7 1 -8 4 -2 5 -3 6 -5 0 -2 0 -2 -2 -2 -4 0
-6 -2 -4 -6 4 -6 2 -8 -4 -9 -11 -1 -13 -9 -2 -9 10 -1 14 4 19 21 3 11 2 17
-4 20 -4 3 -7 2 -10 -2z"/>
<path d="M3280 1629 c-6 -2 -9 -6 -9 -13 0 -6 7 -8 8 -2 1 4 7 6 9 3 0 -2 -3
-14 -4 -17 -2 -4 -8 -3 -8 1 0 3 -3 7 -5 7 -3 0 -5 -3 -4 -10 0 -9 1 -10 13
-10 14 0 14 0 14 12 0 6 1 12 2 15 4 16 1 19 -16 14z"/>
<path d="M3200 1622 c-1 -2 -2 -7 -2 -11 -1 -3 -2 -7 -2 -9 -4 -7 -1 -14 6
-14 15 -1 20 2 20 14 0 9 -1 10 -9 10 -6 0 -7 3 -5 8 1 3 1 4 -1 5 -2 3 -4 2
-7 -3z m13 -19 c0 -4 -2 -6 -5 -6 -4 2 -1 9 3 9 2 0 2 -1 2 -3z"/>
<path d="M3095 1565 c-10 -2 -9 -4 9 -31 5 -8 10 -17 12 -19 1 -2 3 -7 4 -9 7
-16 30 -47 34 -47 5 0 -1 14 -13 32 -14 19 -34 50 -38 59 -3 7 -8 6 100 7 94
1 113 1 116 3 3 2 -1 3 -16 3 -8 1 -23 2 -33 2 -24 1 -168 1 -175 0z"/>
<path d="M364 1557 c-4 -5 -3 -7 0 -7 3 0 5 -1 9 -3 12 -9 30 -11 29 -2 0 1
-1 2 -5 2 -4 0 -6 0 -10 3 -12 9 -21 11 -23 7z"/>
<path d="M436 1558 c-4 -2 3 -16 9 -16 7 0 2 -6 -7 -9 -6 -2 -7 -5 -3 -13 5
-11 -1 -20 -13 -18 -10 2 -13 0 -8 -6 7 -9 30 3 34 17 0 3 3 9 4 13 8 17 7 19
-8 29 -6 4 -6 4 -8 3z"/>
<path d="M477 1544 c-9 -3 -27 -38 -27 -51 0 -9 9 -14 19 -10 6 2 22 32 24 44
2 12 -7 21 -16 17z m7 -10 c3 -3 2 -7 -2 -14 -1 -4 -5 -10 -7 -14 -4 -9 -10
-15 -13 -15 -4 0 -4 1 5 22 11 24 12 26 17 21z"/>
<path d="M353 1538 c-4 -4 -2 -6 6 -7 8 -1 15 -4 18 -7 5 -6 16 -6 17 -1 1 7
-35 21 -41 15z"/>
<path d="M509 1533 c-11 -6 -12 -21 -1 -25 9 -4 23 12 18 20 -2 1 -12 7 -13 7
0 0 -2 -1 -4 -2z m8 -7 c2 -2 1 -6 -1 -9 l-3 -2 -2 2 c-4 3 -4 4 -1 8 3 2 5 3
7 1z"/>
<path d="M354 1505 c-1 -1 -2 -5 -2 -7 -2 -7 -3 -7 -17 -7 -8 1 -16 1 -19 2
-5 0 -5 0 -6 -3 -2 -4 -4 -6 -8 -6 -2 -1 -6 -3 -8 -4 -3 -2 -6 -4 -8 -4 -6 -2
-1 -3 14 -4 17 0 26 1 37 6 14 6 13 11 14 -71 0 -37 1 -71 1 -77 1 -19 3 -70
3 -71 -1 -1 -38 -3 -59 -4 -24 -1 -28 -1 -28 -5 1 -2 5 -4 12 -4 9 0 10 -2 5
-24 -3 -15 -2 -25 1 -28 4 -6 7 -107 3 -120 -2 -7 -3 -21 -1 -41 2 -19 2 -19
-7 -20 -7 -1 -9 -1 -9 -4 0 -3 15 -5 46 -5 28 -1 32 -2 34 -4 4 -7 5 -202 0
-206 0 -1 -13 1 -27 4 -7 2 -14 1 -15 -1 -2 -3 -6 -4 -17 -4 -13 0 -17 -1 -17
-4 0 -4 3 -5 14 -5 9 -1 16 -3 22 -5 4 -2 4 -2 18 2 22 6 25 4 25 -11 0 -11 1
-16 4 -17 4 -1 5 1 5 16 l1 15 55 0 56 0 0 -13 c1 -14 2 -17 4 -17 3 0 6 13 6
22 0 7 16 11 26 5 7 -3 11 -4 15 -2 11 7 701 11 717 4 5 -3 10 -2 23 0 18 4
26 2 25 -5 -1 -11 0 -18 4 -23 4 -4 4 -1 4 69 0 38 0 83 1 101 1 17 1 51 2 75
1 32 1 45 2 45 5 3 129 0 136 -2 6 -3 7 -12 3 -27 -4 -16 -5 -27 -1 -31 3 -4
4 -9 4 -25 0 -25 6 -21 9 5 1 5 1 14 2 19 1 6 1 12 0 18 -4 36 -4 39 -1 40 1
0 3 1 4 2 2 2 4 2 7 2 4 -1 7 0 7 1 0 0 -4 2 -9 4 l-10 3 0 81 0 81 5 0 c16 0
19 8 4 9 -12 1 -13 6 -9 27 3 18 3 22 2 29 -2 5 -2 11 -2 26 0 22 -1 26 -4 28
-4 2 -5 -1 -5 -12 0 -6 -1 -14 -1 -17 -1 -4 -1 -10 -2 -12 0 -3 -1 -8 -2 -10
-2 -6 -2 -9 -1 -21 3 -18 4 -32 2 -34 -3 -3 -14 -3 -79 -3 l-63 0 -1 71 c0 54
0 73 1 74 2 1 4 1 15 -2 14 -4 27 -5 30 -1 2 3 3 3 11 3 15 0 20 1 20 3 -1 5
-5 6 -38 7 -37 1 -37 1 -39 11 -2 16 -9 15 -9 -2 0 -9 -1 -9 -12 -9 -10 0 -9
0 -9 7 0 5 -1 6 -3 7 -4 3 -6 2 -6 -4 0 -10 6 -10 -65 -9 -77 0 -139 -2 -142
-5 -5 -4 5 -5 83 -6 63 0 69 0 72 -4 3 -2 21 -2 33 1 12 3 17 4 18 3 1 0 1
-32 1 -73 l0 -73 -389 0 -390 0 0 43 0 44 -38 0 c-37 1 -44 1 -46 3 -1 2 29
57 35 65 6 8 11 16 16 26 5 11 20 34 22 34 3 0 12 -13 15 -22 4 -11 8 -15 17
-17 8 -1 8 0 5 11 -5 16 -23 35 -45 49 -7 3 -12 7 -13 8 -5 4 -19 10 -39 16
-9 3 -24 5 -35 6 -14 0 -14 0 -16 8 -1 4 -2 7 -3 8 0 2 -2 1 -3 -2z m40 -25
c23 -5 57 -19 65 -27 l6 -5 -6 -11 c-4 -6 -10 -18 -16 -27 -9 -17 -12 -22 -22
-38 -4 -5 -10 -16 -15 -23 -5 -8 -10 -16 -11 -19 -2 -7 -5 -12 -11 -22 -3 -5
-5 -9 -5 -9 0 -1 -3 -5 -6 -10 -3 -6 -6 -11 -7 -13 -4 -10 -5 4 -6 110 l0 95
13 0 c8 0 17 -1 21 -1z m893 -109 l4 0 0 -73 0 -73 -5 0 c-3 0 -8 1 -10 2 l-5
2 -2 20 c0 11 -1 26 -2 34 -1 18 -1 39 0 63 1 25 2 26 13 25 1 0 4 0 7 0z
m-822 -111 l0 -34 -29 0 c-35 0 -36 0 -41 7 -9 14 -12 49 -4 62 0 0 16 0 37 0
l37 0 0 -35z m-91 -11 c0 -3 7 -24 10 -28 5 -8 5 -15 0 -25 -1 -4 -9 -34 -11
-40 0 -3 -1 16 -1 45 0 27 0 50 0 50 0 2 2 0 2 -2z m-19 -55 l0 -52 -5 -2 c-3
-1 -7 -2 -8 -2 -3 0 -8 -2 -9 -3 -2 -4 3 -6 14 -6 l8 0 0 -58 0 -58 -28 0 -27
0 0 9 c1 5 2 14 3 21 3 20 4 24 1 26 -4 3 -4 12 -4 96 0 79 0 80 2 80 1 1 13
1 27 1 l26 0 0 -52z m934 20 c1 -2 2 -3 2 -7 0 -6 -2 -5 -6 2 -1 2 -3 4 -4 4
0 1 -1 2 0 2 1 2 5 1 8 -1z m158 -81 l0 -82 -71 -1 c-40 0 -73 0 -74 0 l-2 1
0 40 c0 22 1 40 1 41 1 0 5 1 10 1 10 0 12 1 12 4 0 3 -3 4 -13 5 l-9 1 -1 35
c0 20 0 37 1 37 0 1 33 1 73 1 l73 0 0 -83z m-440 47 c0 -28 -1 -36 -3 -37 -1
0 -26 -1 -55 -1 -56 -1 -62 -1 -62 -4 0 -3 20 -4 75 -5 l45 0 0 -38 0 -37
-262 0 c-145 0 -263 0 -263 0 0 1 0 17 0 36 l0 35 31 0 c39 1 59 3 59 8 0 3
-20 5 -60 5 -25 0 -27 0 -27 2 0 1 -1 6 -2 13 -1 14 -2 47 0 47 1 1 37 1 81 1
76 0 214 2 215 3 0 0 52 0 114 0 l114 0 0 -28z m219 26 c31 0 33 -2 6 -4 -63
-5 -205 -7 -210 -2 -3 3 -2 5 2 5 14 2 149 3 202 1z m-758 -3 c1 0 1 -10 1
-28 -1 -38 2 -36 -42 -37 -40 0 -41 0 -40 10 2 18 12 51 16 54 4 3 63 4 65 1z
m790 -17 c0 -1 0 -9 0 -18 -2 -28 3 -25 -56 -26 -49 -1 -53 -1 -54 -5 0 -3 6
-4 59 -4 40 0 50 0 50 -1 1 -2 1 -48 0 -50 0 -1 -23 -1 -117 -1 l-116 0 0 26
1 26 35 0 c36 1 40 1 39 5 -1 2 -5 3 -30 4 -30 1 -45 3 -45 5 -2 6 -4 20 -4
30 l0 12 118 0 119 0 1 -3z m22 0 c5 -12 5 -106 -1 -108 -9 -4 -13 39 -5 52 3
4 3 8 0 8 -4 0 -5 45 -2 49 2 3 6 2 8 -1z m-815 -79 c0 -12 1 -27 2 -33 1 -6
1 -11 1 -12 -2 -1 -28 -3 -46 -4 -22 0 -20 -1 -22 10 -1 3 -2 10 -4 15 -8 26
-9 29 -9 37 0 4 0 8 1 8 0 1 17 1 38 1 l39 0 0 -22z m-90 -1 c3 -9 6 -26 6
-31 0 -2 1 -7 4 -13 4 -10 4 -10 -2 -19 -3 -4 -6 -9 -7 -12 -1 -3 -3 -6 -3 -6
-1 0 -1 20 -1 45 0 24 0 44 1 43 0 0 1 -3 2 -7z m879 -39 c4 -2 4 -4 -1 -5
-11 -5 -212 -5 -228 -1 -7 2 -6 4 2 6 8 1 223 1 227 0z m37 -8 c0 -5 -1 -7 -6
-8 -4 -2 -6 0 -3 3 2 2 3 4 3 4 0 1 4 6 5 6 1 0 1 -2 1 -5z m0 -15 c0 0 0 -56
0 -124 l0 -123 -11 0 c-10 0 -12 1 -17 3 -7 3 -10 4 -13 1 -3 -3 -25 -3 -300
-4 -65 -1 -119 -1 -121 -1 -2 -1 -28 -1 -59 -1 -102 -2 -214 -4 -226 -5 -8 -1
-10 0 -16 5 -5 5 -9 5 -24 1 -18 -3 -19 -3 -20 7 -2 10 -3 238 -1 238 2 1 517
1 519 0 4 -2 4 -6 5 -73 1 -56 2 -82 4 -84 1 -1 2 3 2 9 0 4 1 6 2 9 2 3 3 3
9 2 22 -5 29 -6 33 -1 4 5 4 5 69 6 81 0 112 -1 116 -4 6 -4 21 -4 39 1 8 3 8
3 0 8 -12 6 -32 9 -39 5 -7 -5 -179 -5 -185 0 -4 2 -7 2 -24 -2 -13 -4 -17 -4
-18 -1 -2 4 -3 42 -3 87 l1 39 81 0 c74 0 124 1 177 3 21 1 21 1 20 -1z m-822
-35 c0 -37 1 -35 -9 -35 -4 -1 -13 -1 -20 -2 -16 -1 -40 -1 -44 2 -10 5 -12
29 -5 49 1 3 3 8 4 12 3 8 0 7 39 7 l35 0 0 -33z m-96 -29 c2 -3 6 -10 9 -14
l4 -7 10 -2 c5 0 13 -1 16 -2 4 -1 20 -1 36 -1 l28 0 0 -70 c0 -48 0 -73 -1
-79 -2 -12 2 -11 -57 -12 l-50 0 0 8 c-4 58 -5 186 -1 186 0 0 3 -3 6 -7z"/>
<path d="M1375 1166 c-1 -3 1 -7 7 -13 5 -5 8 -10 8 -14 0 -11 25 -24 34 -18
5 3 10 13 9 18 -2 8 -12 16 -24 18 -4 1 -10 3 -15 5 -8 5 -18 6 -19 4z m38
-22 c7 -2 9 -6 4 -11 -3 -4 -7 -4 -13 2 -9 8 -4 14 9 9z"/>
<path d="M595 1139 c-4 -5 0 -10 6 -7 4 2 4 4 1 7 -3 4 -4 4 -7 0z"/>
<path d="M848 1141 c0 -1 0 -3 0 -5 1 -4 9 -4 9 0 0 4 -8 7 -9 5z"/>
<path d="M649 1139 c-19 -1 -27 -3 -23 -7 5 -5 199 -1 199 5 0 2 -146 3 -176
2z"/>
<path d="M1119 1140 c-4 -3 -2 -7 5 -7 3 0 4 0 5 3 2 4 -5 8 -10 4z"/>
<path d="M1138 1012 c-2 -3 -8 -27 -10 -46 l-1 -9 2 -3 c6 -8 9 -5 9 7 0 5 1
15 2 22 5 30 4 39 -2 29z"/>
<path d="M1149 961 c-3 -3 -9 -16 -9 -21 0 -8 0 -10 3 -13 5 -5 9 -1 16 17 5
13 -2 24 -10 17z m6 -12 c0 0 -1 -1 -1 -2 -1 -1 -3 -3 -3 -6 -2 -3 -3 -4 -4
-4 -3 0 -2 5 2 9 4 4 6 5 6 3z"/>
<path d="M874 881 c-3 -9 -4 -11 -4 -14 -3 -19 -4 -23 -5 -30 -1 -16 3 -20 8
-9 3 4 3 5 3 19 0 8 0 18 1 23 1 5 1 9 1 10 1 3 -3 4 -4 1z"/>
<path d="M406 867 c-1 -3 -2 -7 -3 -10 -4 -18 -5 -25 -6 -28 -3 -11 -2 -16 2
-16 2 0 7 13 7 17 0 6 4 13 7 14 4 0 5 -2 5 -7 -3 -19 -2 -28 3 -20 4 9 5 11
6 15 0 3 2 7 2 11 3 10 1 13 -8 15 -5 0 -6 2 -7 8 -2 8 -5 8 -8 1z"/>
<path d="M1206 1458 c-10 -7 -8 -33 3 -33 5 0 8 -7 5 -14 -2 -5 -5 -7 -13 -8
-12 -1 -11 -11 1 -10 18 1 34 41 16 41 -3 0 -4 0 -6 5 -4 7 0 11 11 12 9 1 12
4 7 8 -2 2 -21 1 -24 -1z"/>
<path d="M1248 1457 c-14 -10 -15 -25 -2 -25 16 0 25 18 13 26 -3 3 -7 2 -11
-1z m7 -8 c3 -3 -2 -7 -6 -6 -3 1 -2 3 0 6 3 2 4 3 6 0z"/>
<path d="M1172 1452 c-6 -8 -21 -36 -21 -41 0 -4 2 -5 7 -6 4 0 6 -1 10 -5 6
-5 7 -5 10 -1 5 5 6 12 5 18 -2 9 -4 10 -8 4 -7 -13 -12 -5 -5 8 9 17 10 32 2
23z"/>
<path d="M3160 1451 c0 -1 1 -4 3 -7 2 -3 4 -6 5 -8 3 -5 18 -35 23 -45 11
-24 32 -44 31 -31 0 8 -10 23 -23 36 -6 6 -9 10 -12 16 -7 15 -20 35 -24 39
l-3 2 0 -2z"/>
<path d="M3379 1444 c-14 -2 -39 -18 -55 -34 -3 -3 -6 -5 -8 -6 -1 0 -4 -1 -5
-2 -2 -1 -3 -2 -4 -2 -1 0 -2 -2 -3 -4 -2 -2 -4 -4 -8 -6 -4 -1 -11 -6 -17
-11 -5 -4 -11 -9 -13 -10 -12 -8 -43 -29 -55 -38 -9 -6 -19 -13 -23 -15 -4 -2
-9 -5 -12 -8 -6 -4 -16 -10 -19 -10 -4 0 -19 -8 -30 -15 -12 -9 -18 -13 -49
-35 -13 -8 -26 -17 -29 -19 -15 -8 -38 -23 -57 -37 -8 -6 -55 -37 -91 -61 -16
-10 -64 -42 -73 -48 -4 -3 -13 -9 -19 -14 -15 -10 -27 -18 -38 -26 -18 -14
-21 -14 -30 -5 -4 4 -10 8 -14 10 -4 3 -10 7 -14 10 -11 7 -16 7 -38 -4 -56
-28 -82 -56 -96 -100 -2 -7 -3 -44 -2 -73 1 -31 2 -33 32 -94 19 -39 63 -83
103 -103 25 -12 40 -10 63 10 2 1 6 4 9 6 18 9 27 19 38 39 8 12 12 19 24 37
5 6 14 25 17 31 2 7 2 19 -2 30 -2 5 -4 13 -5 18 l-1 9 3 2 c1 1 6 4 10 8 11
8 30 20 43 28 11 6 19 12 45 30 8 6 20 14 26 17 6 4 15 10 19 13 3 2 12 8 18
13 6 4 16 10 21 14 35 25 105 73 118 81 4 2 17 10 30 19 13 8 26 17 30 19 4 3
11 7 15 11 3 3 9 6 13 8 3 2 6 4 7 5 1 3 10 12 12 12 5 0 15 6 23 13 2 3 6 6
8 6 2 1 6 4 10 7 3 2 9 7 13 10 3 2 7 5 8 6 3 3 18 14 21 15 21 10 84 55 87
61 1 2 2 3 5 3 11 3 17 18 17 44 0 16 -1 18 -6 12 -6 -5 -8 -3 -9 16 -1 17 -8
39 -18 55 -4 7 -15 28 -15 29 0 1 6 -1 8 -3 2 -2 5 -6 8 -9 5 -8 8 -9 7 -3 0
7 -20 29 -31 34 -5 3 -7 3 -15 4 -2 1 -5 0 -7 0z m19 -37 c14 -14 28 -37 28
-45 0 -6 -8 3 -12 12 -4 12 -16 28 -20 28 -1 0 -6 8 -7 11 -1 5 2 4 11 -6z
m-16 -6 c14 -7 25 -26 28 -45 1 -4 1 -9 2 -10 1 -4 -2 -2 -4 3 -9 20 -14 29
-22 37 -14 16 -15 21 -4 15z m-14 -11 c14 -10 18 -15 24 -28 11 -20 23 -74 17
-76 -1 0 -6 9 -7 18 -8 33 -14 48 -30 71 -5 8 -12 19 -12 20 0 2 1 1 8 -5z
m-22 -2 c17 -8 36 -42 46 -80 2 -9 4 -27 2 -27 -4 0 -9 13 -8 21 1 6 -3 17 -6
18 -2 2 -10 19 -10 22 0 3 -5 12 -8 15 -2 2 -3 4 -3 4 0 3 -6 14 -8 15 -11 7
-15 18 -5 12z m-10 -15 c15 -10 23 -23 31 -48 1 -4 3 -10 4 -13 7 -19 9 -36 5
-42 -2 -4 -6 6 -6 16 0 19 -20 67 -35 84 -6 7 -5 8 1 3z m-19 -8 c2 -1 9 -8
16 -14 16 -17 21 -29 30 -67 1 -6 2 -24 1 -26 -2 -2 -7 11 -9 26 -2 10 -4 19
-8 24 -1 2 -4 7 -6 11 -8 18 -13 27 -22 36 -11 12 -12 16 -2 10z m-9 -16 c4
-2 20 -21 25 -28 2 -3 3 -7 6 -21 0 -3 1 -7 2 -9 5 -24 7 -39 4 -42 -3 -4 -4
-2 -5 16 -1 17 -3 23 -12 38 -8 13 -26 46 -26 48 0 2 2 1 6 -2z m123 -13 c2
-9 3 -25 1 -25 0 0 -1 1 -3 2 -3 3 -4 2 -7 -6 -4 -9 -5 -7 -6 12 0 16 1 19 3
10 4 -13 7 -10 8 7 0 14 1 14 4 0z m-149 8 c0 -1 -1 -1 -1 -1 -1 0 -2 0 -2 1
0 1 1 1 2 1 0 0 1 0 1 -1z m13 -6 c12 -9 24 -34 32 -66 5 -19 5 -38 1 -38 -3
0 -8 20 -8 27 0 4 -2 11 -8 29 -5 16 -8 21 -16 32 -11 16 -12 24 -1 16z m-23
-6 c15 -6 21 -17 40 -74 6 -18 6 -28 1 -28 -2 0 -2 1 -3 14 -1 13 -5 25 -13
37 -1 2 -4 7 -6 11 -3 7 -6 12 -19 31 -4 6 -6 11 -6 11 1 0 3 -1 6 -2z m-6
-16 c20 -16 33 -50 33 -86 0 -19 -3 -16 -5 4 -2 18 -3 24 -7 29 -2 2 -4 5 -4
6 0 4 -22 40 -32 52 -2 3 -4 5 -4 6 0 1 15 -8 19 -11z m-28 -3 c14 -6 35 -35
39 -53 2 -10 2 -19 1 -18 -2 0 -14 21 -22 36 -3 5 -7 12 -10 16 -16 21 -16 23
-8 19z m-3 -21 c9 -6 12 -11 20 -30 13 -30 20 -68 13 -70 -2 0 -3 4 -4 13 0
13 -9 37 -20 53 -2 4 -6 11 -8 16 -2 4 -5 11 -7 15 -4 9 -3 9 6 3z m-16 -8 c6
-4 21 -29 24 -40 0 -4 2 -9 3 -12 0 -3 1 -7 1 -8 0 -2 1 -6 2 -10 4 -11 6 -25
3 -21 0 0 -2 4 -2 8 -2 8 -3 11 -6 18 -1 2 -2 5 -3 6 0 1 -2 6 -4 11 -2 4 -6
14 -9 20 -3 7 -7 16 -9 20 -5 10 -5 11 0 8z m-23 -8 c2 -1 6 -2 9 -3 8 -1 11
-8 25 -49 15 -46 13 -57 -8 -69 -4 -2 -9 -6 -12 -9 -2 -2 -5 -4 -6 -4 -3 0
-17 -8 -23 -15 -4 -3 -9 -7 -10 -8 -2 0 -5 -2 -7 -5 -5 -5 -11 -8 -38 -22 -26
-13 -30 -16 -41 -26 -6 -6 -10 -8 -17 -11 -2 -1 -4 -3 -6 -6 -2 -5 -6 -9 -11
-10 -6 -1 -11 -4 -17 -10 -9 -7 -16 -12 -26 -17 -15 -7 -31 -19 -72 -50 -4 -3
-9 -7 -11 -8 -6 -3 -14 -8 -20 -13 -2 -1 -7 -5 -12 -7 -13 -7 -32 -18 -39 -23
-4 -2 -8 -4 -8 -4 -2 1 -12 27 -13 34 -1 4 -2 10 -4 14 -1 3 -3 9 -4 12 -2 8
-11 21 -23 34 -6 6 -11 11 -11 12 1 1 9 5 14 5 7 2 15 8 23 20 4 5 5 6 7 6 3
0 7 1 12 5 2 1 6 3 8 3 4 2 10 7 11 10 1 2 2 2 4 2 3 -1 4 -1 10 7 2 3 4 4 7
5 5 1 18 9 23 15 2 2 5 3 6 3 9 0 11 0 14 1 1 1 3 4 4 7 3 6 9 10 19 11 7 1 7
2 15 9 10 9 12 10 15 9 3 0 9 5 12 10 2 4 9 10 13 11 3 0 6 3 6 7 0 2 1 3 8 5
6 1 12 5 19 12 9 7 21 16 28 19 3 1 9 5 13 7 4 3 10 7 13 8 3 1 8 4 9 6 2 2 5
3 6 4 2 0 4 2 7 6 4 7 8 12 12 13 1 1 4 4 6 6 2 4 3 4 6 4 2 0 4 1 5 1 2 2 14
8 16 8 3 0 6 3 7 7 2 5 3 6 9 7 3 0 5 0 6 2 3 5 5 5 12 2z m88 -46 c1 -6 2
-21 0 -21 -3 0 -6 10 -5 20 1 6 3 7 5 1z m-581 -180 c3 -1 7 -3 9 -4 14 -8 30
-18 40 -26 9 -7 30 -21 37 -25 11 -7 26 -25 26 -33 0 -4 4 -19 6 -22 2 -3 5
-12 5 -15 0 -1 1 -6 3 -10 12 -32 21 -68 24 -86 0 -4 1 -9 1 -13 2 -8 1 -10
-9 -16 -8 -5 -10 -7 -6 -9 5 -2 -6 -23 -20 -37 -12 -11 -15 2 -6 19 3 5 2 6
-6 3 -13 -4 -16 -7 -40 -37 -8 -10 -23 -37 -26 -47 -2 -7 -2 -7 -19 -2 -14 5
-24 10 -22 12 1 1 6 2 12 2 21 2 31 10 38 33 10 30 6 91 -9 126 -2 5 -5 13 -7
19 -7 19 -30 58 -41 68 -3 3 -4 2 -1 -3 11 -19 22 -45 22 -50 0 -6 -3 -17 -6
-21 -6 -10 -7 -23 -2 -28 1 -2 1 -5 1 -28 0 -25 0 -27 -3 -32 -1 -2 -1 -2 1
-4 8 -6 5 -74 -4 -74 -20 -1 -67 47 -73 76 -6 29 -7 48 -3 52 3 3 5 10 4 18
-1 4 -2 6 -6 10 -2 1 -3 7 -1 10 1 2 2 9 5 24 1 8 2 18 1 29 -1 7 -1 9 0 12 3
6 2 8 -1 15 -4 8 -2 19 6 29 5 5 17 -1 41 -21 9 -8 11 -8 15 -5 3 2 5 2 11 -3
27 -19 56 -16 80 8 14 14 8 16 -10 3 -14 -10 -16 -10 -18 -1 -2 10 -7 15 -11
10 -2 -2 -3 -2 -3 1 0 10 -19 29 -28 29 -6 0 -11 9 -11 18 -1 9 -6 12 -9 5 -4
-10 -8 -2 -5 11 3 12 7 14 18 10z m-56 -35 c3 -5 6 -8 6 -9 0 -2 6 -11 11 -17
6 -7 7 -10 2 -7 -1 0 -3 1 -4 1 0 0 -2 1 -4 3 -5 4 -16 7 -28 8 -21 1 -21 5
-2 19 15 11 13 11 19 2z"/>
<path d="M2949 1023 c-2 -1 -1 -6 0 -6 3 0 8 3 8 5 -1 2 -7 3 -8 1z"/>
<path d="M2885 978 c-1 0 -1 -8 0 -8 3 -1 5 3 3 7 0 2 -1 2 -3 1z"/>
<path d="M2792 959 c-2 -1 -3 -2 -3 -4 0 -6 5 -6 10 0 4 6 1 8 -7 4z"/>
<path d="M2777 950 c-37 -16 -37 -53 2 -131 13 -26 16 -29 24 -29 6 0 24 7 24
10 0 1 -8 6 -14 9 -8 4 -11 10 -15 26 -1 6 -5 18 -8 25 -3 8 -6 16 -7 19 0 3
-3 6 -5 9 l-5 5 2 2 c4 3 4 3 -1 7 -3 4 -3 4 -2 7 1 3 1 3 -6 10 -6 6 -7 5 7
18 14 14 15 17 4 13z"/>
<path d="M2837 813 c-5 -2 -7 -10 -2 -10 3 0 10 7 10 10 0 1 -4 1 -8 0z"/>
<path d="M2823 788 c-1 -3 0 -7 3 -7 2 0 2 7 0 8 -1 0 -2 -1 -3 -1z"/>
<path d="M1065 1438 c-8 -6 -13 -18 -13 -30 l1 -8 4 -4 c4 -4 11 -6 11 -3 0 0
1 1 3 2 4 2 3 6 -4 9 l-5 2 0 5 c2 10 7 21 12 21 4 0 6 2 6 5 0 5 -8 6 -15 1z"/>
<path d="M1103 1440 c-2 -1 -1 -6 2 -10 4 -7 4 -10 -1 -14 -7 -6 -13 -16 -8
-16 1 0 5 2 9 4 8 5 9 5 17 -3 8 -9 11 -5 5 8 -5 10 -5 11 0 18 8 9 8 17 0 9
-5 -6 -10 -6 -16 1 -4 4 -7 5 -8 3z"/>
<path d="M3435 1394 c-1 -1 -1 -2 0 -5 1 -2 2 -6 3 -8 1 -2 2 -8 4 -11 1 -4 3
-12 4 -16 5 -20 12 -27 11 -11 -1 13 -16 53 -20 53 0 0 -1 -1 -2 -2z"/>
<path d="M1849 1332 c-1 -21 -2 -23 -61 -62 -28 -19 -46 -32 -53 -39 -7 -6 -7
-7 -8 -36 -1 -19 -1 -28 -2 -32 -1 -3 -2 -8 -2 -11 0 -9 -1 -10 -13 -10 -11
-1 -13 -2 -13 -4 0 -1 2 -2 9 -2 21 0 20 11 21 -175 1 -169 2 -192 6 -182 3 7
6 7 27 4 16 -4 18 -4 21 0 2 1 4 2 4 2 1 0 17 0 36 1 48 1 96 0 100 -3 4 -2 6
-2 20 0 24 6 28 4 29 -11 0 -8 1 -10 2 -10 6 -1 7 13 7 110 l0 79 68 0 c80 0
87 0 87 7 0 5 -2 5 -44 5 -35 0 -48 0 -101 4 l-10 0 0 69 c0 102 -2 166 -5
185 l-1 6 -8 4 c-4 2 -9 5 -10 7 -2 1 -7 5 -11 8 -11 9 -35 25 -43 30 -15 8
-31 20 -31 23 0 2 213 4 233 1 l7 0 0 -5 c0 -5 -3 -19 -5 -27 -2 -6 -1 -19 1
-21 3 -4 4 -10 4 -30 0 -20 0 -23 3 -23 3 1 4 10 3 36 0 9 0 10 3 14 4 5 4 13
1 29 -1 4 -2 12 -3 17 l0 10 5 0 c8 0 13 5 7 7 -4 2 -90 4 -176 5 -52 0 -95 0
-95 1 -1 0 -1 3 -5 21 -2 15 -4 15 -4 -2z m-1 -47 c3 -12 -1 -20 -12 -22 -18
-4 -50 -20 -59 -30 -15 -17 -28 -47 -32 -69 -3 -21 -3 -22 -5 -8 -5 24 -4 51
2 57 1 2 17 14 41 32 5 5 15 12 21 17 16 13 39 26 42 26 1 0 2 -2 2 -3z m22
-6 c3 -3 7 -7 9 -7 3 -1 7 -5 10 -8 6 -6 8 -8 19 -12 3 -1 8 -4 10 -7 8 -7 21
-17 33 -25 l11 -7 0 -26 c-1 -23 -3 -41 -5 -43 -1 -1 -3 5 -8 26 -11 46 -36
76 -77 89 -15 5 -18 7 -18 15 0 11 7 13 16 5z m-21 -83 c0 -39 0 -50 -1 -50
-2 -1 -41 -5 -54 -6 -22 -1 -17 -4 7 -4 8 0 21 0 28 0 l14 0 1 -3 c3 -8 4 -24
4 -61 0 -58 0 -58 -26 -45 -27 13 -40 26 -54 53 -13 26 -12 87 1 112 16 31 47
54 71 54 l9 0 0 -50z m21 47 c45 -15 69 -53 69 -110 0 -34 -7 -55 -24 -76 -9
-11 -24 -25 -27 -25 0 0 -5 -2 -9 -5 -12 -6 -17 -7 -18 -6 -3 4 -4 112 -2 114
1 0 17 1 35 1 19 0 34 1 35 1 1 2 -1 2 -13 3 -7 1 -23 2 -35 3 l-23 2 -1 5
c-2 20 -4 93 -2 94 2 2 9 1 15 -1z m91 -121 c2 -19 0 -58 -4 -70 -2 -7 -12
-18 -17 -18 0 0 -30 -21 -41 -29 -9 -7 -27 -19 -35 -23 -9 -4 -10 -4 -10 4 1
13 6 19 18 21 33 5 73 56 79 101 1 6 3 14 4 17 3 8 3 8 4 7 1 0 2 -5 2 -10z
m-218 -5 c1 -5 3 -12 3 -17 5 -30 38 -74 68 -89 6 -3 7 -3 19 -4 15 0 14 1 14
-15 1 -14 0 -15 -12 -6 -6 3 -12 6 -14 7 -2 1 -5 3 -7 5 -5 4 -16 12 -38 27
-34 21 -35 23 -37 63 -1 39 0 49 4 29z m-3 -88 c3 -2 28 -18 47 -31 7 -4 15
-9 17 -12 8 -6 17 -11 27 -16 12 -7 16 -11 17 -20 2 -7 4 -13 5 -13 2 1 7 11
7 14 1 3 4 3 31 1 9 -1 30 -1 46 -2 l29 0 0 -66 c0 -67 -1 -84 -4 -86 -2 -2
-15 -1 -22 2 -7 4 -10 4 -15 1 -6 -3 -19 -4 -78 -4 -59 0 -63 0 -66 4 -2 2 -2
2 -7 1 -3 -1 -12 -1 -22 -1 l-15 0 -1 15 c-3 71 -4 205 -2 212 1 2 2 2 6 1z
m226 -26 c1 -14 1 -28 2 -30 1 -9 -12 -11 -63 -9 -32 0 -35 1 -26 6 6 4 27 20
32 24 2 2 9 7 16 12 7 4 15 9 19 11 3 2 8 6 12 8 4 2 7 4 7 4 0 0 1 -12 1 -26z"/>
<path d="M1763 1141 c-3 -2 -1 -4 3 -4 3 0 4 0 4 1 0 2 -1 4 -4 4 -1 0 -2 0
-3 -1z"/>
<path d="M1866 888 c-15 -11 -17 -21 -6 -32 4 -4 8 -14 8 -18 -1 -3 -4 -4 -13
-4 -15 0 -12 -10 3 -10 21 0 26 27 8 43 -7 6 -1 12 10 11 7 -1 8 0 8 2 0 8
-12 13 -18 8z"/>
<path d="M209 1252 c-4 -3 -4 -12 0 -18 4 -6 7 -6 12 -2 9 9 18 11 14 4 -3 -6
-1 -12 4 -12 8 0 10 9 4 20 -4 8 -15 9 -23 1 -3 -4 -5 -3 -4 0 0 4 -4 9 -7 7z"/>
<path d="M191 1222 c-7 -11 -2 -23 12 -26 10 -2 12 -1 15 8 3 6 5 6 11 2 4 -4
9 -11 9 -15 0 -2 3 -5 4 -4 4 1 5 16 2 22 -6 12 -30 13 -33 1 -1 -7 -12 -2
-13 8 -2 6 -5 8 -7 4z"/>
<path d="M197 1187 c-7 -3 -10 -12 -6 -19 5 -12 33 -16 33 -5 0 3 3 2 9 -2 6
-5 10 -7 13 -5 6 4 -16 24 -26 24 -2 0 -3 1 -4 2 -1 4 -13 7 -19 5z m12 -13
c2 0 6 -4 6 -6 0 -5 -5 -4 -11 1 -5 4 -4 9 1 6 2 0 3 -1 4 -1z"/>
<path d="M2113 1181 c-3 -4 -3 -55 -1 -113 0 -25 -2 -43 -6 -48 -2 -3 -3 -11
-1 -13 2 -2 5 -14 5 -22 0 -13 4 -19 8 -12 4 9 3 167 -2 203 0 5 -2 8 -3 5z"/>
<path d="M2343 1155 c-10 -7 -11 -9 -14 -18 -2 -7 -2 -8 6 -16 3 -4 5 -7 6
-10 2 -7 4 -6 13 3 21 21 23 35 9 45 -7 5 -10 4 -20 -4z m5 -13 c0 -12 -7 -20
-10 -12 -3 7 2 19 8 18 2 0 2 -1 2 -6z m16 0 c0 -4 -4 -12 -6 -13 -6 -3 -6 10
0 16 4 3 6 3 6 -3z"/>
<path d="M2048 1156 c-5 0 -6 -3 -6 -18 0 -19 2 -22 17 -25 4 -1 11 -3 14 -5
5 -1 10 -2 15 -2 l8 0 0 14 c0 13 0 13 -3 18 -6 10 -28 20 -40 19 -1 0 -3 -1
-5 -1z m14 -11 c1 -1 4 -2 6 -3 1 0 5 -2 7 -3 10 -4 14 -8 13 -17 -1 -5 -1 -5
-3 -5 -2 1 -4 2 -6 2 -3 1 -7 2 -10 4 -3 2 -6 3 -9 3 -6 0 -12 5 -13 12 -2 7
6 10 15 7z"/>
<path d="M2387 1148 c-5 -3 -9 -13 -9 -28 0 -12 2 -14 15 -14 12 0 13 2 14 19
1 8 1 17 1 19 l1 5 -9 0 c-6 0 -11 -1 -13 -1z m10 -9 c4 -5 -2 -24 -8 -24 -5
0 -4 19 1 23 3 2 5 2 7 1z"/>
<path d="M2422 1147 c-6 -3 -9 -8 -10 -19 -1 -18 6 -29 14 -22 l3 3 -2 2 c-7
6 -6 20 3 30 8 8 4 11 -8 6z"/>
<path d="M2484 1148 c-8 -3 -13 -25 -9 -35 6 -13 27 -9 27 5 0 2 1 5 2 7 3 9
3 19 -1 22 -2 2 -14 3 -19 1z m11 -12 c4 -7 1 -18 -6 -22 -4 -3 -6 -1 -6 5 0
12 9 23 12 17z"/>
<path d="M2447 1144 c-5 -6 -9 -37 -6 -37 0 0 3 3 7 6 l7 6 0 -6 c1 -9 5 -13
9 -8 3 3 3 13 0 17 -3 4 -3 6 1 9 1 1 3 4 5 8 4 10 1 12 -8 5 -7 -5 -8 -5 -9
1 -1 4 -4 4 -6 -1z"/>
<path d="M1989 1141 c-2 0 -1 -4 1 -4 6 -3 19 0 16 4 -1 1 -14 2 -17 0z"/>
<path d="M241 1138 c-3 -1 2 -8 8 -11 4 -2 5 -1 5 2 0 7 -7 12 -13 9z"/>
<path d="M197 1132 c-3 0 -4 -2 -6 -9 -3 -15 10 -23 39 -25 13 0 16 1 16 10 0
13 -12 22 -29 22 -3 0 -7 0 -9 1 -4 1 -8 2 -11 1z m24 -12 c7 -3 15 -9 14 -11
-2 -4 -27 1 -31 6 -8 9 1 12 17 5z"/>
<path d="M2325 1088 c-6 -1 7 -7 16 -7 10 0 14 6 5 7 -5 1 -18 1 -21 0z"/>
<path d="M2382 1088 c-20 -1 -25 -1 -25 -4 0 -4 23 -5 112 -5 l75 0 10 -11
c10 -10 14 -15 21 -26 8 -13 36 -32 36 -25 0 5 -25 39 -31 42 -7 3 -24 16 -31
23 l-6 7 -71 0 c-39 0 -79 -1 -90 -1z"/>
<path d="M216 1086 c-2 -5 -1 -17 1 -20 5 -8 10 10 5 19 -2 4 -5 4 -6 1z"/>
<path d="M228 1083 c-4 -5 -2 -23 2 -23 5 0 7 19 3 23 -2 3 -4 2 -5 0z"/>
<path d="M245 1050 c-10 0 -10 -5 0 -7 7 -1 17 0 17 3 0 4 -6 5 -17 4z"/>
<path d="M194 1046 c-2 -2 -4 -20 -3 -25 1 -6 5 -10 13 -12 3 -1 10 -3 16 -5
16 -5 23 -5 25 0 2 4 1 23 -1 26 -5 7 -46 20 -50 16z m28 -18 c9 -2 11 -2 13
-5 6 -6 2 -17 -5 -13 -5 2 -14 6 -19 7 -10 3 -14 9 -10 13 2 2 3 2 21 -2z"/>
<path d="M3161 992 c-8 -1 -9 -2 -12 -14 -2 -6 -5 -26 -7 -41 -1 -5 1 -7 8 -8
16 -2 21 5 7 11 -5 2 -6 5 -6 12 0 12 12 36 16 33 1 -1 6 2 6 3 0 3 -6 5 -12
4z"/>
<path d="M3048 987 c0 -2 0 -3 1 -4 0 0 1 -2 2 -4 7 -23 14 -36 19 -36 10 0
13 10 5 20 -2 2 -6 7 -10 12 -9 11 -17 17 -17 12z"/>
<path d="M3191 974 c-7 -1 -11 -7 -11 -16 0 -2 -1 -7 -2 -12 -4 -18 -2 -17 8
6 6 13 10 12 6 -1 -3 -10 -1 -25 3 -16 0 1 2 5 3 8 1 3 3 8 3 12 4 13 5 11 5
-5 0 -21 4 -24 9 -6 5 23 -4 35 -24 30z"/>
<path d="M3268 974 c-2 -1 -5 -3 -6 -5 -4 -3 -4 -4 -6 -24 -1 -6 -2 -14 -3
-17 -1 -5 -1 -7 0 -8 1 -1 4 0 4 2 0 4 9 10 15 10 6 1 8 3 11 17 4 21 3 24 -8
25 -3 1 -6 1 -7 0z m9 -16 c2 -8 -4 -22 -9 -19 -5 5 -4 18 2 25 2 3 6 -1 7 -6z"/>
<path d="M3325 972 c-2 -2 -5 -5 -6 -7 -3 -4 -3 -4 -5 0 -1 3 -4 5 -5 5 -1 0
-1 -1 -1 -3 0 -2 0 -2 -2 -1 -1 1 -3 2 -5 2 l-3 1 -1 -11 c-1 -9 -2 -14 -4
-14 -1 0 -4 -5 -4 -7 0 -5 14 -7 19 -2 3 3 3 3 6 -1 2 -1 3 -2 5 -2 l3 1 0 13
0 13 5 5 c6 5 7 7 4 9 -2 3 -2 2 -6 -1z"/>
<path d="M3347 973 c-2 0 -4 -1 -4 -1 0 0 -2 -6 -5 -14 -6 -18 -5 -24 3 -27
11 -3 18 1 9 6 -8 4 -7 10 1 10 10 0 19 16 13 23 -4 5 -12 6 -17 3z m8 -10 c3
-3 3 -6 0 -9 -5 -5 -10 5 -5 10 2 3 2 2 5 -1z"/>
<path d="M3232 972 c-5 -2 -5 -2 -9 -17 -5 -16 1 -26 13 -24 6 1 5 4 -2 6 -3
1 -6 2 -6 2 -1 0 2 2 6 3 8 2 18 14 18 22 0 7 -11 12 -20 8z m7 -7 c3 -3 0
-10 -3 -9 -2 1 -3 8 -1 9 1 1 2 1 4 0z"/>
<path d="M3393 965 c-8 -9 -8 -9 -14 -4 -5 5 -6 5 -7 -5 0 -3 -1 -8 -1 -10 -3
-12 1 -16 6 -7 6 12 9 11 11 -1 1 -11 6 -7 8 6 1 4 1 11 2 16 2 11 1 12 -5 5z"/>
<path d="M3410 965 c-6 -12 -7 -25 -4 -31 2 -4 4 -5 4 -2 0 2 5 9 7 10 2 0 2
0 1 -4 -1 -6 6 -7 10 -1 5 7 2 15 -4 15 -5 0 -7 3 -8 10 -1 7 -4 8 -6 3z"/>
<path d="M3079 938 c0 -1 0 -3 1 -4 1 -1 1 -3 1 -4 0 -3 11 -23 14 -27 l2 -2
121 0 c122 1 137 1 136 4 -1 1 -38 2 -119 2 -148 1 -135 -1 -148 23 -5 8 -7
10 -8 8z"/>
<path d="M3382 907 c-2 -2 -2 -2 -1 -4 2 -2 30 -2 30 0 0 4 -25 7 -29 4z"/>
<path d="M3360 906 c-2 -2 1 -5 6 -5 3 0 5 2 3 4 -1 1 -8 2 -9 1z"/>
<path d="M3422 906 c-1 0 -1 -2 -1 -3 1 -3 11 -3 11 1 0 3 -7 4 -10 2z"/>
<path d="M2846 765 c-1 -2 3 -8 14 -19 10 -10 13 -12 18 -12 2 0 4 -1 8 -5 10
-10 30 -26 64 -49 9 -7 19 -14 22 -16 2 -2 5 -4 7 -5 7 -4 258 0 258 4 0 4
-24 5 -162 5 l-100 0 -5 6 c-3 3 -7 6 -9 7 -2 1 -6 4 -9 6 -4 3 -9 6 -11 8
-20 15 -32 25 -50 43 -20 19 -42 33 -45 27z"/>
<path d="M3001 753 c-3 -2 -4 -6 -6 -19 -1 -8 -2 -13 -5 -23 -4 -15 -5 -18 -2
-18 4 0 11 19 14 40 2 11 4 13 9 13 7 0 12 4 9 7 -2 3 -16 2 -19 0z"/>
<path d="M3134 754 c-4 -3 -10 -9 -11 -15 0 -3 -2 -9 -3 -13 -2 -9 -3 -31 -1
-32 1 -2 12 -1 16 0 11 5 14 16 12 43 -2 16 -5 20 -13 17z m3 -9 c0 -1 -1 -2
-2 -2 -2 0 -4 1 -3 2 0 1 5 1 5 0z m3 -22 c1 -3 -7 -21 -10 -23 -5 -2 -6 9 -2
17 4 10 9 12 12 6z"/>
<path d="M3068 738 c-2 -1 -4 -5 -6 -9 -2 -4 -5 -10 -6 -12 -9 -16 -10 -20 -9
-22 3 -5 6 0 17 19 6 10 10 14 7 6 -4 -10 -6 -25 -3 -27 3 -2 11 18 13 33 1
10 -7 17 -13 12z"/>
<path d="M3098 737 c-9 -7 -17 -36 -12 -43 2 -2 12 -1 16 1 5 3 10 15 12 28 1
10 -10 19 -16 14z m5 -13 c2 -7 -2 -21 -7 -25 -2 -2 -3 0 -2 9 1 15 6 24 9 16z"/>
<path d="M3027 736 c-7 -9 -11 -19 -11 -30 0 -11 2 -14 11 -13 14 2 22 23 15
38 -2 6 -11 8 -15 5z m7 -17 c0 -10 -5 -18 -10 -17 -3 2 0 17 5 22 4 4 6 2 5
-5z"/>
<path d="M3174 731 c-6 -6 -7 -6 -9 -1 -1 4 -4 5 -5 2 0 -2 -1 -4 -1 -5 -2 -5
-7 -20 -7 -24 -1 -8 0 -8 6 -3 5 6 6 6 6 3 0 -3 6 -9 8 -9 3 0 3 2 2 8 -2 9 0
15 5 21 10 11 5 18 -5 8z"/>
<path d="M3193 735 c-3 -3 -6 -12 -7 -23 -2 -17 0 -19 15 -19 12 1 13 1 13 13
1 5 1 12 2 16 1 8 0 11 -3 13 -3 2 -18 1 -20 0z m14 -10 c2 -1 0 -6 -4 -15 -7
-15 -14 -14 -9 2 4 13 9 18 13 13z"/>
<path d="M1751 618 c-2 0 -1 -34 0 -38 3 -6 11 -6 14 0 1 1 2 3 2 4 0 1 3 2 9
2 12 1 13 2 13 5 1 3 3 4 5 2 1 0 1 -4 2 -8 0 -9 1 -9 17 -9 15 0 16 0 18 9 3
15 2 16 -15 15 -15 0 -17 1 -27 11 l-6 6 -8 1 c-5 0 -12 0 -16 0 -4 0 -7 0 -8
0z m21 -11 c5 -7 5 -10 0 -11 -7 0 -9 3 -7 13 2 5 2 5 7 -2z m46 -14 c0 -1 -5
-3 -6 -3 0 1 0 2 0 2 1 2 6 3 6 1z"/>
<path d="M1920 616 c-2 -2 -3 -3 -3 -12 0 -11 0 -13 6 -14 6 -1 7 -1 9 -5 5
-12 19 -16 16 -4 -3 12 -9 19 -18 19 -2 0 -3 1 -4 2 -3 4 -2 4 1 4 4 0 16 7
16 11 0 2 -20 2 -23 -1z"/>
<path d="M1963 616 c-7 -3 -9 -9 -5 -10 3 -1 4 -2 4 -16 1 -11 2 -13 6 -14 9
-3 11 2 11 22 -1 21 -3 23 -16 18z"/>
<path d="M1854 602 c-7 -1 -18 -19 -15 -24 3 -5 9 -2 11 5 1 10 4 11 8 6 4 -6
7 -6 9 -4 4 4 1 12 -6 16 -4 2 -4 2 -7 1z"/>
<path d="M1915 580 c-2 -3 6 -7 10 -4 2 1 -1 4 -5 5 -3 0 -4 0 -5 -1z"/>
<path d="M1955 100 c0 -1 -1 -2 -1 -4 0 -1 0 -4 -1 -6 -6 -28 -7 -35 -2 -34 3
1 3 2 6 15 0 2 1 2 7 2 15 0 22 4 22 14 0 10 -4 12 -18 13 -6 0 -12 0 -13 0z
m22 -8 c3 -3 3 -7 0 -10 -2 -2 -16 -5 -18 -3 -1 0 1 13 2 15 0 1 14 0 16 -2z"/>
<path d="M2093 100 c-1 -2 -5 -18 -5 -21 0 -4 2 -4 8 -1 7 3 12 1 12 -6 0 -10
-15 -14 -18 -4 -1 1 -6 0 -6 -2 0 -12 25 -13 30 0 4 11 -6 24 -15 19 -3 -2 -3
-1 -2 4 l1 5 9 0 c9 0 12 1 10 5 -1 2 -23 2 -24 1z"/>
<path d="M2136 99 c-6 -3 -11 -7 -11 -9 0 -3 2 -3 5 -1 5 4 5 2 2 -10 -1 -6
-2 -12 -2 -14 0 -2 -1 -3 -6 -3 -5 0 -5 -1 -5 -3 l0 -2 12 -1 c13 0 15 1 15 4
0 2 -1 2 -5 2 -5 1 -5 -1 -1 21 4 19 3 20 -4 16z"/>
<path d="M2014 90 c-1 -2 -2 -6 -3 -10 -2 -13 -5 -18 -11 -18 -4 0 -5 2 -3 12
3 17 3 18 -2 17 -5 -2 -8 -28 -4 -32 3 -3 11 -3 14 -1 2 3 3 2 3 0 0 -2 1 -2
3 -2 3 1 3 2 6 19 1 4 2 9 2 11 1 5 -3 8 -5 4z"/>
<path d="M2033 90 c-15 -6 -16 -32 -1 -34 7 -1 18 7 15 11 -2 1 -6 1 -6 0 0
-2 -4 -5 -7 -5 -10 0 -6 22 3 23 3 0 4 0 6 -2 2 -4 7 -4 7 -1 0 6 -11 11 -17
8z"/>
<path d="M2053 63 c-3 -2 -1 -7 2 -7 3 0 6 5 4 7 0 1 -5 1 -6 0z"/>
</g>
</svg>
