<svg xmlns="http://www.w3.org/2000/svg" viewBox="-47.5575 -81.3 685.357 327.8"><defs><marker id="ar" orient="auto-start-reverse" markerUnits="userSpaceOnUse" markerWidth="26" markerHeight="10" viewBox="-13 -5 26 10" refX="0" refY="0"><path d="M0,0 L-12,2.4 L-12,-2.4 Z" fill="#1A1A18"/></marker><pattern id="ht" width="9" height="9" patternUnits="userSpaceOnUse" patternTransform="rotate(45)"><line x2="9" stroke="#1A1A18" stroke-width="1"/></pattern></defs><g transform="translate(0,0)"><line x1="-8" y1="0" x2="144.5" y2="0" stroke="#1A1A18" stroke-width="1" stroke-dasharray="24 5 3 5"/><path d="M 0,-18.7425 L 2.5575,-21.3 L 16.5,-21.3 L 16.5,21.3 L 2.5575,21.3 L 0,18.7425 Z" fill="none" stroke="#1A1A18" stroke-width="2.4"/><line x1="0" y1="-10.65" x2="16.5" y2="-10.65" stroke="#1A1A18" stroke-width="2.4"/><line x1="0" y1="10.65" x2="16.5" y2="10.65" stroke="#1A1A18" stroke-width="2.4"/><path d="M 3.5575,-20.3 Q 7.115,-8.3 3.5575,-12.65" fill="none" stroke="#1A1A18" stroke-width="2.4"/><path d="M 5.115,-11.65 Q 1.5575,0 5.115,11.65" fill="none" stroke="#1A1A18" stroke-width="2.4"/><path d="M 3.5575,20.3 Q 7.115,8.3 3.5575,12.65" fill="none" stroke="#1A1A18" stroke-width="2.4"/><path d="M 16.5,-12 L 132.9,-12 L 136.5,-8.4 L 136.5,8.4 L 132.9,12 L 16.5,12 Z" fill="none" stroke="#1A1A18" stroke-width="2.4"/><line x1="16.5" y1="-21.3" x2="16.5" y2="-12" stroke="#1A1A18" stroke-width="2.4"/><line x1="16.5" y1="12" x2="16.5" y2="21.3" stroke="#1A1A18" stroke-width="2.4"/><line x1="70.5" y1="-12" x2="70.5" y2="12" stroke="#1A1A18" stroke-width="2.4"/><line x1="70.5" y1="-10.2" x2="136.4" y2="-10.2" stroke="#1A1A18" stroke-width="1"/><line x1="70.5" y1="10.2" x2="136.4" y2="10.2" stroke="#1A1A18" stroke-width="1"/><line x1="0" y1="22.3" x2="0" y2="51.3" stroke="#1A1A18" stroke-width="1"/><line x1="16.5" y1="24.3" x2="16.5" y2="51.3" stroke="#1A1A18" stroke-width="1"/><line x1="-4" y1="51.3" x2="20.5" y2="51.3" stroke="#1A1A18" stroke-width="1" marker-start="url(#ar)" marker-end="url(#ar)"/><text x="8.25" y="46.3" text-anchor="middle" fill="#1A1A18" font-family="'PT Sans'" font-style="italic" font-size="15">h</text><line x1="70.5" y1="15" x2="70.5" y2="42" stroke="#1A1A18" stroke-width="1"/><line x1="136.5" y1="15" x2="136.5" y2="42" stroke="#1A1A18" stroke-width="1"/><line x1="70.5" y1="42" x2="136.5" y2="42" stroke="#1A1A18" stroke-width="1" marker-start="url(#ar)" marker-end="url(#ar)"/><text x="103.5" y="37" text-anchor="middle" fill="#1A1A18" font-family="'PT Sans'" font-style="italic" font-size="15">l₀</text><line x1="16.5" y1="42" x2="16.5" y2="63" stroke="#1A1A18" stroke-width="1"/><line x1="136.5" y1="42" x2="136.5" y2="63" stroke="#1A1A18" stroke-width="1"/><line x1="16.5" y1="63" x2="136.5" y2="63" stroke="#1A1A18" stroke-width="1" marker-start="url(#ar)" marker-end="url(#ar)"/><text x="76.5" y="58" text-anchor="middle" fill="#1A1A18" font-family="'PT Sans'" font-style="italic" font-size="15">l</text><line x1="132.9" y1="-13" x2="132.9" y2="-42" stroke="#1A1A18" stroke-width="1"/><line x1="136.5" y1="-13" x2="136.5" y2="-42" stroke="#1A1A18" stroke-width="1"/><line x1="128.9" y1="-42" x2="140.5" y2="-42" stroke="#1A1A18" stroke-width="1" marker-start="url(#ar)" marker-end="url(#ar)"/><text x="134.7" y="-47" text-anchor="middle" fill="#1A1A18" font-family="'PT Sans'" font-style="italic" font-size="15">c×45°</text><line x1="0" y1="-18.7425" x2="0" y2="-40.7425" stroke="#1A1A18" stroke-width="1"/><line x1="0" y1="-18.7425" x2="3.069" y2="-21.8115" stroke="#1A1A18" stroke-width="1"/><path d="M 0,-36.7425 A 12 12 0 0 1 1.5345,-19.8115" fill="none" stroke="#1A1A18" stroke-width="1"/><text x="-3" y="-44.7425" text-anchor="middle" fill="#1A1A18" font-family="'PT Sans'" font-style="italic" font-size="14">≈30°</text><line x1="31.5" y1="-18" x2="31.5" y2="18" stroke="#1A1A18" stroke-width="1" marker-start="url(#ar)" marker-end="url(#ar)"/><line x1="37.5" y1="-12" x2="43.5" y2="-12" stroke="#1A1A18" stroke-width="1"/><line x1="37.5" y1="12" x2="43.5" y2="12" stroke="#1A1A18" stroke-width="1"/><text x="25.5" y="0" text-anchor="middle" fill="#1A1A18" font-family="'PT Sans'" font-style="italic" font-size="15" transform="rotate(-90 25.5 0)">d</text></g><g transform="translate(0,0)"><line x1="205.2" y1="0" x2="267.8" y2="0" stroke="#1A1A18" stroke-width="1" stroke-dasharray="24 5 3 5"/><line x1="236.5" y1="-31.3" x2="236.5" y2="31.3" stroke="#1A1A18" stroke-width="1" stroke-dasharray="24 5 3 5"/><polygon points="236.5,-21.3 254.9,-10.7 254.9,10.6 236.5,21.3 218.1,10.7 218.1,-10.7" fill="none" stroke="#1A1A18" stroke-width="2.4"/><circle cx="236.5" cy="0" r="18.525" fill="none" stroke="#1A1A18" stroke-width="2.4"/><line x1="217" y1="25.3" x2="217" y2="51.3" stroke="#1A1A18" stroke-width="1"/><line x1="256" y1="25.3" x2="256" y2="51.3" stroke="#1A1A18" stroke-width="1"/><line x1="217" y1="51.3" x2="256" y2="51.3" stroke="#1A1A18" stroke-width="1" marker-start="url(#ar)" marker-end="url(#ar)"/><text x="236.5" y="46.3" text-anchor="middle" fill="#1A1A18" font-family="'PT Sans'" font-style="italic" font-size="15">S</text><line x1="261.8" y1="-21.3" x2="287.8" y2="-21.3" stroke="#1A1A18" stroke-width="1"/><line x1="261.8" y1="21.3" x2="287.8" y2="21.3" stroke="#1A1A18" stroke-width="1"/><line x1="287.8" y1="-21.3" x2="287.8" y2="21.3" stroke="#1A1A18" stroke-width="1" marker-start="url(#ar)" marker-end="url(#ar)"/><text x="281.8" y="0" text-anchor="middle" fill="#1A1A18" font-family="'PT Sans'" font-style="italic" font-size="15" transform="rotate(-90 281.8 0)">D</text></g><g transform="translate(317.8,70) rotate(-35)"><path d="M 8,-12 L 90.4,-12 L 93.2,-9.6 A 4.2 9.6 0 0 1 93.2,9.6 L 90.4,12 L 8,12 Z" fill="#FFFFFF" stroke="#1A1A18" stroke-width="2.4"/><line x1="47.2" y1="-12" x2="47.2" y2="12" stroke="#1A1A18" stroke-width="2.4"/><line x1="50.4" y1="-11.6" x2="48" y2="11.6" stroke="#1A1A18" stroke-width="1"/><line x1="54" y1="-11.6" x2="51.6" y2="11.6" stroke="#1A1A18" stroke-width="1"/><line x1="57.6" y1="-11.6" x2="55.2" y2="11.6" stroke="#1A1A18" stroke-width="1"/><line x1="61.2" y1="-11.6" x2="58.8" y2="11.6" stroke="#1A1A18" stroke-width="1"/><line x1="64.8" y1="-11.6" x2="62.4" y2="11.6" stroke="#1A1A18" stroke-width="1"/><line x1="68.4" y1="-11.6" x2="66" y2="11.6" stroke="#1A1A18" stroke-width="1"/><line x1="72" y1="-11.6" x2="69.6" y2="11.6" stroke="#1A1A18" stroke-width="1"/><line x1="75.6" y1="-11.6" x2="73.2" y2="11.6" stroke="#1A1A18" stroke-width="1"/><line x1="79.2" y1="-11.6" x2="76.8" y2="11.6" stroke="#1A1A18" stroke-width="1"/><line x1="82.8" y1="-11.6" x2="80.4" y2="11.6" stroke="#1A1A18" stroke-width="1"/><line x1="86.4" y1="-11.6" x2="84" y2="11.6" stroke="#1A1A18" stroke-width="1"/><line x1="90" y1="-11.6" x2="87.6" y2="11.6" stroke="#1A1A18" stroke-width="1"/><polygon points="-8,-10 0,-20 11.2,-20 19.2,-10 19.2,10 11.2,20 0,20 -8,10" fill="#FFFFFF" stroke="#1A1A18" stroke-width="2.4"/><polygon points="0,-20 8,-10 8,10 0,20 -8,10 -8,-10" fill="none" stroke="#1A1A18" stroke-width="2.4"/><line x1="8" y1="-10" x2="19.2" y2="-10" stroke="#1A1A18" stroke-width="2.4"/><line x1="8" y1="10" x2="19.2" y2="10" stroke="#1A1A18" stroke-width="2.4"/><ellipse cx="0" cy="0" rx="7.6" ry="17.12" fill="none" stroke="#1A1A18" stroke-width="1"/></g><text x="393.4" y="-12.4" text-anchor="middle" fill="#1A1A18" font-family="'PT Sans'" font-style="italic" font-size="6.4">Резьба</text><line x1="382.84" y1="-7.4" x2="403.96" y2="-7.4" stroke="#1A1A18" stroke-width="1"/><line x1="395.8" y1="-9.2" x2="367.8" y2="21.2" stroke="#1A1A18" stroke-width="1" marker-end="url(#ar)"/><text x="382.2" y="79.6" text-anchor="middle" fill="#1A1A18" font-family="'PT Sans'" font-style="italic" font-size="6.4">Стержень</text><line x1="368.12" y1="84.6" x2="396.28" y2="84.6" stroke="#1A1A18" stroke-width="1"/><line x1="383.8" y1="80.4" x2="355" y2="62" stroke="#1A1A18" stroke-width="1" marker-end="url(#ar)"/><text x="262.2" y="47.6" text-anchor="middle" fill="#1A1A18" font-family="'PT Sans'" font-style="italic" font-size="6.4">Фаска</text><line x1="253.4" y1="52.6" x2="271" y2="52.6" stroke="#1A1A18" stroke-width="1"/><line x1="279.8" y1="50.8" x2="303.8" y2="60.8" stroke="#1A1A18" stroke-width="1" marker-end="url(#ar)"/><text x="291" y="107.6" text-anchor="middle" fill="#1A1A18" font-family="'PT Sans'" font-style="italic" font-size="6.4">Головка</text><line x1="278.68" y1="112.6" x2="303.32" y2="112.6" stroke="#1A1A18" stroke-width="1"/><line x1="307" y1="106" x2="330.2" y2="85.6" stroke="#1A1A18" stroke-width="1" marker-end="url(#ar)"/></svg>