<svg xmlns="http://www.w3.org/2000/svg" viewBox="-48.255 -88.05 727.305 369.05"><defs><marker id="ar" orient="auto-start-reverse" markerUnits="userSpaceOnUse" markerWidth="26" markerHeight="10" viewBox="-13 -5 26 10" refX="0" refY="0"><path d="M0,0 L-12,2.4 L-12,-2.4 Z" fill="#1A1A18"/></marker><pattern id="ht" width="9" height="9" patternUnits="userSpaceOnUse" patternTransform="rotate(45)"><line x2="9" stroke="#1A1A18" stroke-width="1"/></pattern></defs><g transform="translate(0,0)"><line x1="-8" y1="0" x2="179" y2="0" stroke="#1A1A18" stroke-width="1" stroke-dasharray="24 5 3 5"/><path d="M 0,-24.795 L 3.255,-28.05 L 21,-28.05 L 21,28.05 L 3.255,28.05 L 0,24.795 Z" fill="none" stroke="#1A1A18" stroke-width="2.4"/><line x1="0" y1="-14.025" x2="21" y2="-14.025" stroke="#1A1A18" stroke-width="2.4"/><line x1="0" y1="14.025" x2="21" y2="14.025" stroke="#1A1A18" stroke-width="2.4"/><path d="M 4.255,-27.05 Q 8.51,-15.05 4.255,-16.025" fill="none" stroke="#1A1A18" stroke-width="2.4"/><path d="M 6.51,-15.025 Q 2.255,0 6.51,15.025" fill="none" stroke="#1A1A18" stroke-width="2.4"/><path d="M 4.255,27.05 Q 8.51,15.05 4.255,16.025" fill="none" stroke="#1A1A18" stroke-width="2.4"/><path d="M 21,-15 L 166.5,-15 L 171,-10.5 L 171,10.5 L 166.5,15 L 21,15 Z" fill="none" stroke="#1A1A18" stroke-width="2.4"/><line x1="21" y1="-28.05" x2="21" y2="-15" stroke="#1A1A18" stroke-width="2.4"/><line x1="21" y1="15" x2="21" y2="28.05" stroke="#1A1A18" stroke-width="2.4"/><line x1="93" y1="-15" x2="93" y2="15" stroke="#1A1A18" stroke-width="2.4"/><line x1="93" y1="-12.75" x2="170" y2="-12.75" stroke="#1A1A18" stroke-width="1"/><line x1="93" y1="12.75" x2="170" y2="12.75" stroke="#1A1A18" stroke-width="1"/><line x1="0" y1="29.05" x2="0" y2="58.05" stroke="#1A1A18" stroke-width="1"/><line x1="21" y1="31.05" x2="21" y2="58.05" stroke="#1A1A18" stroke-width="1"/><line x1="-4" y1="58.05" x2="25" y2="58.05" stroke="#1A1A18" stroke-width="1" marker-start="url(#ar)" marker-end="url(#ar)"/><text x="10.5" y="53.05" text-anchor="middle" fill="#1A1A18" font-family="'PT Sans'" font-style="italic" font-size="15">h</text><line x1="93" y1="18" x2="93" y2="45" stroke="#1A1A18" stroke-width="1"/><line x1="171" y1="18" x2="171" y2="45" stroke="#1A1A18" stroke-width="1"/><line x1="93" y1="45" x2="171" y2="45" stroke="#1A1A18" stroke-width="1" marker-start="url(#ar)" marker-end="url(#ar)"/><text x="132" y="40" text-anchor="middle" fill="#1A1A18" font-family="'PT Sans'" font-style="italic" font-size="15">l₀</text><line x1="21" y1="45" x2="21" y2="66" stroke="#1A1A18" stroke-width="1"/><line x1="171" y1="45" x2="171" y2="66" stroke="#1A1A18" stroke-width="1"/><line x1="21" y1="66" x2="171" y2="66" stroke="#1A1A18" stroke-width="1" marker-start="url(#ar)" marker-end="url(#ar)"/><text x="96" y="61" text-anchor="middle" fill="#1A1A18" font-family="'PT Sans'" font-style="italic" font-size="15">l</text><line x1="166.5" y1="-16" x2="166.5" y2="-45" stroke="#1A1A18" stroke-width="1"/><line x1="171" y1="-16" x2="171" y2="-45" stroke="#1A1A18" stroke-width="1"/><line x1="162.5" y1="-45" x2="175" y2="-45" stroke="#1A1A18" stroke-width="1" marker-start="url(#ar)" marker-end="url(#ar)"/><text x="168.75" y="-50" text-anchor="middle" fill="#1A1A18" font-family="'PT Sans'" font-style="italic" font-size="15">c×45°</text><line x1="0" y1="-24.795" x2="0" y2="-46.795" stroke="#1A1A18" stroke-width="1"/><line x1="0" y1="-24.795" x2="3.906" y2="-28.701" stroke="#1A1A18" stroke-width="1"/><path d="M 0,-42.795 A 12 12 0 0 1 1.953,-26.701" fill="none" stroke="#1A1A18" stroke-width="1"/><text x="-3" y="-50.795" text-anchor="middle" fill="#1A1A18" font-family="'PT Sans'" font-style="italic" font-size="14">≈30°</text><line x1="45" y1="-21" x2="45" y2="21" stroke="#1A1A18" stroke-width="1" marker-start="url(#ar)" marker-end="url(#ar)"/><line x1="51" y1="-15" x2="57" y2="-15" stroke="#1A1A18" stroke-width="1"/><line x1="51" y1="15" x2="57" y2="15" stroke="#1A1A18" stroke-width="1"/><text x="39" y="0" text-anchor="middle" fill="#1A1A18" font-family="'PT Sans'" font-style="italic" font-size="15" transform="rotate(-90 39 0)">d</text></g><g transform="translate(0,0)"><line x1="232.95" y1="0" x2="309.05" y2="0" stroke="#1A1A18" stroke-width="1" stroke-dasharray="24 5 3 5"/><line x1="271" y1="-38.05" x2="271" y2="38.05" stroke="#1A1A18" stroke-width="1" stroke-dasharray="24 5 3 5"/><polygon points="271.0,-28.0 295.3,-14.0 295.3,14.0 271.0,28.0 246.7,14.0 246.7,-14.0" fill="none" stroke="#1A1A18" stroke-width="2.4"/><circle cx="271" cy="0" r="24.225" fill="none" stroke="#1A1A18" stroke-width="2.4"/><line x1="245.5" y1="32.05" x2="245.5" y2="58.05" stroke="#1A1A18" stroke-width="1"/><line x1="296.5" y1="32.05" x2="296.5" y2="58.05" stroke="#1A1A18" stroke-width="1"/><line x1="245.5" y1="58.05" x2="296.5" y2="58.05" stroke="#1A1A18" stroke-width="1" marker-start="url(#ar)" marker-end="url(#ar)"/><text x="271" y="53.05" text-anchor="middle" fill="#1A1A18" font-family="'PT Sans'" font-style="italic" font-size="15">S</text><line x1="303.05" y1="-28.05" x2="329.05" y2="-28.05" stroke="#1A1A18" stroke-width="1"/><line x1="303.05" y1="28.05" x2="329.05" y2="28.05" stroke="#1A1A18" stroke-width="1"/><line x1="329.05" y1="-28.05" x2="329.05" y2="28.05" stroke="#1A1A18" stroke-width="1" marker-start="url(#ar)" marker-end="url(#ar)"/><text x="323.05" y="0" text-anchor="middle" fill="#1A1A18" font-family="'PT Sans'" font-style="italic" font-size="15" transform="rotate(-90 323.05 0)">D</text></g><g transform="translate(359.05,70) rotate(-35)"><path d="M 10,-15 L 113,-15 L 116.5,-12 A 5.25 12 0 0 1 116.5,12 L 113,15 L 10,15 Z" fill="#FFFFFF" stroke="#1A1A18" stroke-width="2.4"/><line x1="59" y1="-15" x2="59" y2="15" stroke="#1A1A18" stroke-width="2.4"/><line x1="63" y1="-14.5" x2="60" y2="14.5" stroke="#1A1A18" stroke-width="1"/><line x1="67.5" y1="-14.5" x2="64.5" y2="14.5" stroke="#1A1A18" stroke-width="1"/><line x1="72" y1="-14.5" x2="69" y2="14.5" stroke="#1A1A18" stroke-width="1"/><line x1="76.5" y1="-14.5" x2="73.5" y2="14.5" stroke="#1A1A18" stroke-width="1"/><line x1="81" y1="-14.5" x2="78" y2="14.5" stroke="#1A1A18" stroke-width="1"/><line x1="85.5" y1="-14.5" x2="82.5" y2="14.5" stroke="#1A1A18" stroke-width="1"/><line x1="90" y1="-14.5" x2="87" y2="14.5" stroke="#1A1A18" stroke-width="1"/><line x1="94.5" y1="-14.5" x2="91.5" y2="14.5" stroke="#1A1A18" stroke-width="1"/><line x1="99" y1="-14.5" x2="96" y2="14.5" stroke="#1A1A18" stroke-width="1"/><line x1="103.5" y1="-14.5" x2="100.5" y2="14.5" stroke="#1A1A18" stroke-width="1"/><line x1="108" y1="-14.5" x2="105" y2="14.5" stroke="#1A1A18" stroke-width="1"/><line x1="112.5" y1="-14.5" x2="109.5" y2="14.5" stroke="#1A1A18" stroke-width="1"/><polygon points="-10,-12.5 0,-25 14,-25 24,-12.5 24,12.5 14,25 0,25 -10,12.5" fill="#FFFFFF" stroke="#1A1A18" stroke-width="2.4"/><polygon points="0,-25 10,-12.5 10,12.5 0,25 -10,12.5 -10,-12.5" fill="none" stroke="#1A1A18" stroke-width="2.4"/><line x1="10" y1="-12.5" x2="24" y2="-12.5" stroke="#1A1A18" stroke-width="2.4"/><line x1="10" y1="12.5" x2="24" y2="12.5" stroke="#1A1A18" stroke-width="2.4"/><ellipse cx="0" cy="0" rx="9.5" ry="21.4" fill="none" stroke="#1A1A18" stroke-width="1"/></g><text x="453.55" y="-33" text-anchor="middle" fill="#1A1A18" font-family="'PT Sans'" font-style="italic" font-size="8">Резьба</text><line x1="440.35" y1="-28" x2="466.75" y2="-28" stroke="#1A1A18" stroke-width="1"/><line x1="456.55" y1="-29" x2="421.55" y2="9" stroke="#1A1A18" stroke-width="1" marker-end="url(#ar)"/><text x="439.55" y="82" text-anchor="middle" fill="#1A1A18" font-family="'PT Sans'" font-style="italic" font-size="8">Стержень</text><line x1="421.95" y1="87" x2="457.15" y2="87" stroke="#1A1A18" stroke-width="1"/><line x1="441.55" y1="83" x2="405.55" y2="60" stroke="#1A1A18" stroke-width="1" marker-end="url(#ar)"/><text x="289.55" y="42" text-anchor="middle" fill="#1A1A18" font-family="'PT Sans'" font-style="italic" font-size="8">Фаска</text><line x1="278.55" y1="47" x2="300.55" y2="47" stroke="#1A1A18" stroke-width="1"/><line x1="311.55" y1="46" x2="341.55" y2="58.5" stroke="#1A1A18" stroke-width="1" marker-end="url(#ar)"/><text x="325.55" y="117" text-anchor="middle" fill="#1A1A18" font-family="'PT Sans'" font-style="italic" font-size="8">Головка</text><line x1="310.15" y1="122" x2="340.95" y2="122" stroke="#1A1A18" stroke-width="1"/><line x1="345.55" y1="115" x2="374.55" y2="89.5" stroke="#1A1A18" stroke-width="1" marker-end="url(#ar)"/><text x="315.397" y="269" text-anchor="middle" fill="#1A1A18" font-family="'PT Sans'" font-style="italic" font-size="15">Рис. 52</text></svg>