<svg xmlns="http://www.w3.org/2000/svg" viewBox="-800 -800 11600 13600" width="10000" height="12000">
<text x="3500" y="-500" font-family="Arial" font-size="350" font-weight="bold" fill="#1A1A18" text-anchor="start">ПЛАН 2 ЭТАЖА</text>
<line x1="0" y1="-400" x2="0" y2="12400" stroke="#666" stroke-width="0.8" stroke-dasharray="24 5 3 5"/>
<text x="0" y="-600" font-family="Arial" font-size="280" font-weight="bold" fill="#1A1A18" text-anchor="middle">А</text>
<line x1="2000" y1="-400" x2="2000" y2="12400" stroke="#666" stroke-width="0.8" stroke-dasharray="24 5 3 5"/>
<text x="2000" y="-600" font-family="Arial" font-size="280" font-weight="bold" fill="#1A1A18" text-anchor="middle">Б</text>
<line x1="4000" y1="-400" x2="4000" y2="12400" stroke="#666" stroke-width="0.8" stroke-dasharray="24 5 3 5"/>
<text x="4000" y="-600" font-family="Arial" font-size="280" font-weight="bold" fill="#1A1A18" text-anchor="middle">В</text>
<line x1="6000" y1="-400" x2="6000" y2="12400" stroke="#666" stroke-width="0.8" stroke-dasharray="24 5 3 5"/>
<text x="6000" y="-600" font-family="Arial" font-size="280" font-weight="bold" fill="#1A1A18" text-anchor="middle">Г</text>
<line x1="8000" y1="-400" x2="8000" y2="12400" stroke="#666" stroke-width="0.8" stroke-dasharray="24 5 3 5"/>
<text x="8000" y="-600" font-family="Arial" font-size="280" font-weight="bold" fill="#1A1A18" text-anchor="middle">Д</text>
<line x1="10000" y1="-400" x2="10000" y2="12400" stroke="#666" stroke-width="0.8" stroke-dasharray="24 5 3 5"/>
<text x="10000" y="-600" font-family="Arial" font-size="280" font-weight="bold" fill="#1A1A18" text-anchor="middle">Е</text>
<line x1="-400" y1="0" x2="10400" y2="0" stroke="#666" stroke-width="0.8" stroke-dasharray="24 5 3 5"/>
<text x="-750" y="100" font-family="Arial" font-size="280" font-weight="bold" fill="#1A1A18" text-anchor="middle">1</text>
<line x1="-400" y1="2000" x2="10400" y2="2000" stroke="#666" stroke-width="0.8" stroke-dasharray="24 5 3 5"/>
<text x="-750" y="2100" font-family="Arial" font-size="280" font-weight="bold" fill="#1A1A18" text-anchor="middle">2</text>
<line x1="-400" y1="4000" x2="10400" y2="4000" stroke="#666" stroke-width="0.8" stroke-dasharray="24 5 3 5"/>
<text x="-750" y="4100" font-family="Arial" font-size="280" font-weight="bold" fill="#1A1A18" text-anchor="middle">3</text>
<line x1="-400" y1="6000" x2="10400" y2="6000" stroke="#666" stroke-width="0.8" stroke-dasharray="24 5 3 5"/>
<text x="-750" y="6100" font-family="Arial" font-size="280" font-weight="bold" fill="#1A1A18" text-anchor="middle">4</text>
<line x1="-400" y1="8000" x2="10400" y2="8000" stroke="#666" stroke-width="0.8" stroke-dasharray="24 5 3 5"/>
<text x="-750" y="8100" font-family="Arial" font-size="280" font-weight="bold" fill="#1A1A18" text-anchor="middle">5</text>
<line x1="-400" y1="10000" x2="10400" y2="10000" stroke="#666" stroke-width="0.8" stroke-dasharray="24 5 3 5"/>
<text x="-750" y="10100" font-family="Arial" font-size="280" font-weight="bold" fill="#1A1A18" text-anchor="middle">6</text>
<line x1="-400" y1="12000" x2="10400" y2="12000" stroke="#666" stroke-width="0.8" stroke-dasharray="24 5 3 5"/>
<text x="-750" y="12100" font-family="Arial" font-size="280" font-weight="bold" fill="#1A1A18" text-anchor="middle">7</text>
<line x1="0" y1="0" x2="10000" y2="0" stroke="#1A1A18" stroke-width="4"/>
<line x1="120" y1="120" x2="9880" y2="120" stroke="#1A1A18" stroke-width="1.5"/>
<line x1="0" y1="12000" x2="10000" y2="12000" stroke="#1A1A18" stroke-width="4"/>
<line x1="120" y1="11880" x2="9880" y2="11880" stroke="#1A1A18" stroke-width="1.5"/>
<line x1="0" y1="0" x2="0" y2="12000" stroke="#1A1A18" stroke-width="4"/>
<line x1="120" y1="120" x2="120" y2="11880" stroke="#1A1A18" stroke-width="1.5"/>
<line x1="10000" y1="0" x2="10000" y2="12000" stroke="#1A1A18" stroke-width="4"/>
<line x1="9880" y1="120" x2="9880" y2="11880" stroke="#1A1A18" stroke-width="1.5"/>
<line x1="3000" y1="0" x2="3000" y2="4000" stroke="#1A1A18" stroke-width="1.5"/>
<line x1="3500" y1="4000" x2="5000" y2="4000" stroke="#1A1A18" stroke-width="1.5"/>
<line x1="3500" y1="4000" x2="3500" y2="7000" stroke="#1A1A18" stroke-width="1.5"/>
<line x1="0" y1="4000" x2="3500" y2="4000" stroke="#1A1A18" stroke-width="1.5"/>
<line x1="0" y1="8000" x2="5000" y2="8000" stroke="#1A1A18" stroke-width="1.5"/>
<line x1="5000" y1="4000" x2="10000" y2="4000" stroke="#1A1A18" stroke-width="1.5"/>
<line x1="5000" y1="4000" x2="5000" y2="12000" stroke="#1A1A18" stroke-width="1.5"/>
<line x1="0" y1="1500" x2="800" y2="1500" stroke="#1A1A18" stroke-width="1.2"/>
<path d="M 800 1500 A 800 800 0 0 1 4.898587196589413e-14 2300" fill="none" stroke="#1A1A18" stroke-width="1.2"/>
<line x1="3500" y1="5000" x2="4400" y2="5000" stroke="#1A1A18" stroke-width="1.2"/>
<path d="M 4400 5000 A 900 900 0 0 1 3500 5900" fill="none" stroke="#1A1A18" stroke-width="1.2"/>
<line x1="5000" y1="7000" x2="5900" y2="7000" stroke="#1A1A18" stroke-width="1.2"/>
<path d="M 5900 7000 A 900 900 0 0 1 5000 7900" fill="none" stroke="#1A1A18" stroke-width="1.2"/>
<line x1="2000" y1="8000" x2="2900" y2="8000" stroke="#1A1A18" stroke-width="1.2"/>
<path d="M 2900 8000 A 900 900 0 0 1 2000 8900" fill="none" stroke="#1A1A18" stroke-width="1.2"/>
<line x1="1500" y1="-100" x2="2500" y2="-100" stroke="#1A1A18" stroke-width="1.2"/>
<line x1="1500" y1="100" x2="2500" y2="100" stroke="#1A1A18" stroke-width="1.2"/>
<line x1="1500" y1="0" x2="2500" y2="0" stroke="#1A1A18" stroke-width="1.2"/>
<line x1="5500" y1="-100" x2="6500" y2="-100" stroke="#1A1A18" stroke-width="1.2"/>
<line x1="5500" y1="100" x2="6500" y2="100" stroke="#1A1A18" stroke-width="1.2"/>
<line x1="5500" y1="0" x2="6500" y2="0" stroke="#1A1A18" stroke-width="1.2"/>
<line x1="7000" y1="11900" x2="8500" y2="11900" stroke="#1A1A18" stroke-width="1.2"/>
<line x1="7000" y1="12100" x2="8500" y2="12100" stroke="#1A1A18" stroke-width="1.2"/>
<line x1="7000" y1="12000" x2="8500" y2="12000" stroke="#1A1A18" stroke-width="1.2"/>
<line x1="-100" y1="5500" x2="-100" y2="7000" stroke="#1A1A18" stroke-width="1.2"/>
<line x1="100" y1="5500" x2="100" y2="7000" stroke="#1A1A18" stroke-width="1.2"/>
<line x1="0" y1="5500" x2="0" y2="7000" stroke="#1A1A18" stroke-width="1.2"/>
<text x="1050" y="2050" font-family="Arial" font-size="200" font-weight="bold" fill="#1A1A18" text-anchor="start">Санузел 2</text>
<text x="1350" y="2250" font-family="Arial" font-size="160" font-weight="normal" fill="#1A1A18" text-anchor="start">12.0 м²</text>
<text x="4050" y="5550" font-family="Arial" font-size="200" font-weight="bold" fill="#1A1A18" text-anchor="start">Холл</text>
<text x="4100" y="5750" font-family="Arial" font-size="160" font-weight="normal" fill="#1A1A18" text-anchor="start">4.5 м²</text>
<text x="1300" y="6050" font-family="Arial" font-size="200" font-weight="bold" fill="#1A1A18" text-anchor="start">Спальня 3</text>
<text x="1600" y="6250" font-family="Arial" font-size="160" font-weight="normal" fill="#1A1A18" text-anchor="start">14.0 м²</text>
<text x="2050" y="10050" font-family="Arial" font-size="200" font-weight="bold" fill="#1A1A18" text-anchor="start">Спальня 1</text>
<text x="2350" y="10250" font-family="Arial" font-size="160" font-weight="normal" fill="#1A1A18" text-anchor="start">20.0 м²</text>
<text x="7050" y="8050" font-family="Arial" font-size="200" font-weight="bold" fill="#1A1A18" text-anchor="start">Спальня 2</text>
<text x="7350" y="8250" font-family="Arial" font-size="160" font-weight="normal" fill="#1A1A18" text-anchor="start">40.0 м²</text>
<line x1="0" y1="-300" x2="10000" y2="-300" stroke="#1A1A18" stroke-width="0.6"/>
<line x1="0" y1="-300" x2="0" y2="-400" stroke="#1A1A18" stroke-width="0.6"/>
<line x1="10000" y1="-300" x2="10000" y2="-400" stroke="#1A1A18" stroke-width="0.6"/>
<text x="4600" y="-350" font-family="Arial" font-size="160" font-weight="normal" fill="#1A1A18" text-anchor="start">10.0 м</text>
<line x1="-300" y1="0" x2="-300" y2="12000" stroke="#1A1A18" stroke-width="0.6"/>
<line x1="-300" y1="0" x2="-400" y2="0" stroke="#1A1A18" stroke-width="0.6"/>
<line x1="-300" y1="12000" x2="-400" y2="12000" stroke="#1A1A18" stroke-width="0.6"/>
<text x="-550" y="6050" font-family="Arial" font-size="160" font-weight="normal" fill="#1A1A18" text-anchor="start">12.0 м</text>
</svg>